<?xml version="1.0" encoding="utf-8"?>
<svg version="1.1"
	 id="Layer_1" xmlns:cc="http://creativecommons.org/ns#" xmlns:dc="http://purl.org/dc/elements/1.1/" xmlns:rdf="http://www.w3.org/1999/02/22-rdf-syntax-ns#"
	 xmlns="http://www.w3.org/2000/svg" xmlns:xlink="http://www.w3.org/1999/xlink" x="0px" y="0px" viewBox="0 0 3916.2 5000"
	 style="enable-background:new 0 0 3916.2 5000;" xml:space="preserve">
<path d="M3779.3,763.4c22.6-10.5,30.3-21.1,53.4-30.8c22.3-9.3,37.7-23.3,65-36.3c10.2-4.8,18.5-10.9,18.5-13.5
	c0-6.9-8.3-14-16.4-14c-3.9,0-9.1-4.4-11.5-9.7c-5.7-12.5-26.6-13.2-45.7-1.6c-11.6,7.1-36,16.6-81.1,31.7
	c-13.3,4.4-22.3,0.6-17.2-7.2c8.1-12.4,100.4-44.2,88-64.3c-6.9-11.2-100.4,22.1-152.6,54.3c-12.1,7.5-34.6,20.7-50,29.5
	c-62.4,35.5-136.7,100.9-149.2,131.2c-9.8,23.7-30.4,9.3-122.2,110.5c-53.1,58.5-128.4,102.2-167.2,97
	c-59.7-7.9-164.8,5.7-194.2-23.6c-11.1-11.1-45.5-17.8-70.4-29.4c-22.9-10.7-22.3-3.2-34.2-22.1c-18.4-29.2-57.7-55.1-103.8-68.5
	c-20.4-5.9-21.5-6.9-28.3-26.1c-12.7-35.7-52.3-70.8-63.2-55.9c-7,9.6-20.6,4-27-11.3c-10.3-24.7-39.1-32.7-66-18.3
	c-12.9,6.9-19.3,7.8-42.6,5.8c-25.6-2.2-34.1-5.3-77.4-27.8c-9-4.6-22.1-5.4-65.8-3.8c-51.4,1.8-55.8,1.4-74.3-7.2
	c-10.8-5-27.2-10.2-36.3-11.6c-26.9-4-21.6-22.7,9.3-32.9c19.9-6.6,16.4-12.9-5.4-9.6c-37.8,5.7-42.3,5.8-63.2,1.2
	c-22.6-4.9-31.1-10.4-31.1-20.1c0-13.8-29.3-3.8-5.9-25.7c11.2-10.5,23.4-39.9,20.2-48.4c-4.2-10.8,25.7-86.4,19-160.8
	c-2.7-30.1-3.3-29,18.1-33.7c26.9-5.9,29.8-69.3,39.7-92.4c3.6-8.4-1.4-7.3-35.7-14.3c-11.2-2.3-23-3.1-26.2-1.9
	c-3.8,1.5-5.9,0-5.9-4c0-11.1-0.4-12-8.6-20.8c-6.6-7-8.7-16.1-11.1-46.7c-3.7-47.8-7.2-56.6-31.5-81.4c-40.2-40.9,8.5-20-41.1-51.8
	c-17.2-11-21.3-16-25.9-31.4c-10.5-35.3-21.7-49.8-33.1-42.7c-8.9,5.5-3.3,21.6,7.4,21.6c5.7,0,10.1,2.5,10.9,6.2
	c1.6,8-9.1,7.3-29.5-1.9c-13.6-6.1-15.5-8.6-15.5-19.9c0-23.5-6.8-26.9-21.8-10.8c-11.6,12.5-24,6.9-20-9.1c1.6-6.4,0.6-9-3.5-9
	c-7.4,0-15.4,14.1-9.9,17.5c2.1,1.3,3.9,4.3,3.9,6.5c0,6.9-7.4-6-16.6-2.5c-3.3,1.3-7.1,0.4-8.5-1.9c-3.2-5.1-52.5-5.5-65.7-0.5
	c-7.4,2.8-10.2,2.3-11.9-2.2c-2.2-5.8-17.1-4.2-21.7,2.4c-3.3,4.7-24.7,9.4-38.1,8.3c-15.4-1.3-25.2,5.7-22,15.7
	c4.3,13.5-14.5,2.2-32.5,25.9c-5.7,7.5-18,20.9-27.4,29.6c-29.2,27.4-45.6,64.3-28.8,64.6c14.2,0.3-6.8,4-6.8,17.5
	c0,3.9-2.6,9.9-5.7,13.3c-6.5,7.2-3.9,8.4,13.7,29.3c-2.8-51.1,13.6-28.3,8,9.7c-2.5,16.6,3.6,56,14.6,95.3
	c2.4,8.6,4.4,26.2,4.4,39.2c0,29.1,30.7,101.9,59.3,140.8c42,57.1,62.7,151,44.5,202.6c-6.3,17.8-61.8,47.6-101.8,54.6
	c-39.7,6.9-76,19.9-102.7,26.3c-27.7,6.7-15.6,10.9,33.3,11.5c77,1,81.9,28.1,8,44c-58.5,12.6-83.1,38-108.6,50.5
	c-23.7,11.7-63.9,50.4-76.1,73.3c-18.6,34.9-19,20.8-38.6,60.9c-28.4,58-32.6,55.6-36.3,100.7c-12.3,150.4-42.2,231.3-42.3,383.5
	c-0.1,78.3-7,39.5-13.3,82.3c-4.1,28.1-41.5,130-81,194.1c59.8,58.1,54.8,35.6,39.4,129.4c-8.4,50.8-9,52.8-17.3,52.8
	c-18.3,0-10.1-63.9-41.9-183c-20.3-75.9-29.8-428-14.4-530.5c32.3-214.6-18.8-346.8-138.5-357.5c-73.1-6.6-195.7-64.3-195.7-92.2
	c0-7.4,9.3-10.9,73.3-26.7c48.5-12,54.1-20.2,39.2-56.9c-4.6-11.2-4.2-13.4,4.9-25.3c14-18.4,16.5-29.2,10.8-46.5
	c-9.5-28.8,12.2-14.4,17.7-51.1c2.4-15.9,4.1-18.1,17.8-23.5c21.8-8.6,21.2-23.8-2.4-57.3c-9.7-13.8-15.8-25.6-13.6-26.4
	c7.6-2.5,4.4-16.2-3.8-16.2c-7,0-7.8-2.6-7.8-25c0-13.8-1.7-29.4-3.7-34.7c-8.8-23.1-9.1-85.1-0.5-101.5c22-41.9-11.2-34.1,6.1-47.5
	c7.7-5.9,7.6-5.9-0.8-3.4c-12.3,3.7-25.7-4.4-23.2-14.1c1.5-5.7,0.5-7.2-3.7-5.5c-10.3,3.9-56.2-48.3-72.4-48.3
	c-2.8,0-8.6-2.4-12.8-5.3c-13-8.9-89-29.7-117.1-31.9c-14.6-1.2-29.2-3-32.4-4.1c-14.7-4.9-131.3-6.2-145.3-1.6
	C617,177.5,505,388.8,486.1,388.8c-17.8,0-68.2,84.7-76.4,128.3c-4.3,23-10.3,81.5-8.9,86.8c10.3,38.8-20.6,103.4-52.5,109.9
	c-7.4,1.5-13.2,6.5-17.5,15.1c-8.2,16.2-5.2,19.7,8,9.3c17.3-13.6,9.4,35.2-11,68.2c-4.1,6.6-7.5,13.3-7.6,15
	c-1.7,23.5-43.1,139.7-57.2,160.5c-17,25.2-27.2,52.3-37,98.7c-33.5,158.8-31,138.1-34.9,290c-7.4,287.7,21,266.1-1,390.7
	c-53.3,302.4-31.4,534.9-45,635.7c-12.7,94.2-6.8,93-25.7,99.2c-7.9,2.6-13.6,7.1-13.8,11c-3.6,67.1,5.1,43.8-43.3,156.2
	c9.8,134.6,11.1,134.1,69.7,175.2c7.6,142.4,0.9,46.8-1.1,206.2c-1.5,120.8,2.7,86.8-16.6,154.1c-18.2,63.5-30.1,131.7-44.8,185.6
	c-12.8,46.8,0.8,80.3-16.4,125.8c-14.2,37.9-6.3,61.5-13.9,75.7c-8.9,16.7-18.2,129.4-26.6,158.2c-5.9,20.3-2.1,39.8-7.8,50.6
	c-9.2,17.2-4.7,98.6,7.9,141.9c1.9,6.4,7.3,26.5,12,44.7c11.4,43.9,13.7,35.1,16.7,58.3c8.9,68.8,29.5,81.9,29.5,96.8
	c0,7.8,20.9,31.5,27.8,31.5c3.5,0,7.4,2.5,8.5,5.6c1.2,3.1,13.6,9.2,27.7,13.5c32.8,10.1,39.9,14.1,43,23.9
	c4,12.7,10.5-0.1,20.9,8.8c3.4,3,14.8,7.5,25.3,10c14.2,3.5,25.6,10.5,44.7,27.6c36.2,32.4,92.2,84.1,107.1,90.4
	c98.1,41.4,53.6,58.2,76,80.6c11.1,11.1,5.2,21.5,13.7,24.8c8.9,3.4,8.9,20.8,24.7,26.8c24.7,9.3,34.3,61.2,64.9,61.2
	c17.9,0,44.5,37.9,44.5,63.5c0,26.8,35,71,35,84.6c0,4.5,5.3,9.5,14.6,13.5c22.4,9.8,33.3,17.3,41.1,17.3c8.3,0,39.2,27.5,51.6,34.1
	c23,12.3,165.5,22,189.4,12.8c18.9-7.2,14.7-42.6-7.6-64.2c-18.7-18.1-9-24.5-21.2-35.6c-17.1-15.5-26.7-58.6-14.7-66
	c4.8-2.9,2.5-195.9-2.3-203.8c-1.5-2.4-0.3-7.1,2.5-10.6c7.8-9.4,6.4-85-1.9-100.2c-7.4-13.6-5.5-24.4,8.5-48.6
	c7.9-13.7,10.1-22.8,10.3-43.4c0.2-23.9,1.5-28,15.7-48.3c32-46.1,118.5-224.2,118.5-244c0-1.5-2.6-2.6-5.8-2.6
	c-12,0-0.6-29.5,28.2-73c18.7-28.3,36.4-74.5,31.8-83.1c-5.6-10.5-4.2-30.2,4.2-59.5c12.5-43.6,24.6-152,39-250.4
	c11.9-81.2-1.4-77.7,8.6-89.1c10.9-12.4,7.5-71.3,22-164.2c24.1-154.9,20.9-361.1,37.8-486c19.3-142.6,0.4-94.2-10.6-203.9
	c-8.6-86.6-25.9-90.9-32.8-212.1c-1.6-29-5.1-62.8-11.8-113.9c-1.9-14.4,3.1-30,9.5-30c9.6,0,69.8,196.5,82.5,235.2
	c30.8,93.7,32.1,116.5,10,166.8c-20.9,47.5-19.4,82.5,4.8,109.2c15,16.6,4.9,51,29.3,60.3c7.2,2.7,9.6,7.4,11.7,22.4
	c3.2,23.1,4.6,25.5,20.6,33.6c7.7,4,12.6,9.4,12.6,14.1c0,20,34.5,24.3,56.4,7c9.2-7.2,12.1-7.7,23-3.8c12,4.3,25.5,6,25.5,3.1
	c0-0.8-1.9-6.9-4.3-13.6c-3.8-10.8-3.1-13.6,5.8-24.2c5.5-6.6,10.1-13.6,10.1-15.6c0-5.9,12.5-4.1,20.2,2.9
	c13.1,11.8,11.6-5,44.7-14c22.2-6,27.3-13.7,29.1-43.9c2.3-37.3,27.5-41.8,32-5.7c20.5,165.5,23.1,142.2,29.7,278.7
	c7.2,149.4,70.2,697.8,70.3,697.9c34,273.8,80.8,499.7,80.8,499.6c14.2,75.1,44.2,171.5,84.3,270.2c34.1,84,51.8,154,41.8,165.6
	c-6.1,7.1-3.2,8.9,11.8,28c-23.1,20.2-36.1,33.6-50.7,33.7c-7.2,0-13.1,2.5-14.5,5.9c-2.6,6.9-22.7,7.8-34.3,1.6
	c-15.4-8.3-13.3,11.2-53,14.5c-44.8,3.8-45.8,4.9-29.7,33.6c6.2,11.1,13.9,19.1,20.8,21.5c39.2,13.7-13.2,80.2,222.1,47.2
	c47.3-6.6,80.7-8.8,88.2-5.8c9.8,3.9,89.7,2.5,106.2-1.9c20.7-5.5,28.6-51.7,15.3-89.3c-1.9-5.3-4.3-22.8-5.3-38.9
	c-3.1-48.1-8.9-57.6-2-70.4c14.9-27.3,17.4-122.7,4.6-176.5c-4.6-19.2-11.2-51.6-14.7-71.9c-10.9-62.7-17.7-49.9-17.9-106.5
	c-0.2-62.4-7.8-73-16.9-155.9c-13.1-118.4-23.6-92.3-19.3-132.2c3.6-33.2-6.5-53.6-8-120.7c-1.9-80.4-13.2-65.9-5.4-100.8
	c8.8-39.5-7-20.1,0.3-72.8c4.8-34.5,2.6-77-6-115c-6-26.5-6-29,0.3-40.8c14-26.4,0.1-241,16.8-322.8c8-39.1,1.7-55.4-11.9-104.2
	c25.6-82,26.9-94.5-3.5-188c37.5-36,29.2-42,51.8,23.3c131.3,379.3,138.7,870.9,173.8,1002.2c21,78.6,34.1,338.8,46.4,416.8
	c23.1,146.2,26.6,295.2,37.1,345.3c3,14.6,5.5,40.3,5.5,57.1c0,52.5,1.7,54.1,61.2,57.3c33.1,1.8,39.9,3.2,39.9,8.4
	c0,9.4-11.5,58.4-18.2,77.4c-14,39.8,6.4,70.5,46.9,70.7c17.9,0.1,77.8,25.3,105,21.3c29-4.2,56.9,9.8,74.6,37.6
	c9.7,15.3,23.3,21.6,57.6,26.6c54.9,8,96.4,3.5,112.2-12.3c10.7-10.7,18.4,1.8,18.5-9.6c0.2-36.3,16.9-24.1-29.3-63.7
	c-112.7-96.6-93.9-106.7-154.2-201.9c-11.3-17.8-14.1-37.6-7.1-50.6c14.6-27.3-16.5-129.8,2.1-178.7c3.8-10,5.8-45.5,7.3-126.6
	c4.2-234.8,20-208.7,4.8-367.4c-16.6-173.1-13.2-243.9-63-304.2c-17.2-20.8,4.7-13.1-4.6-54.4c-21.8-97.3-24.5-100-13.6-100.5
	c5.4-0.2,5.1-1.1-1.9-4.5c-11.8-5.7-14.4-23-10.9-72.7c3.7-52.5,2.4-27.6,0.7-216.1c-3.2-362.5-6.5-421-34-598.1
	c-6.1-39.2-6.4-48.1-2.1-60.7c6.6-19,2.1-29.9-5.6-81.9c-4.6-31.2-10.3-46.4-23.4-62.7c-9.7-12-14.9-45.4-7.7-49.8
	c2.6-1.6,5.6-13.2,6.7-25.8c1.8-19.8,19.2-63.8,28.3-71.6c7-6,4.4-142.9,11.1-147.3c11.1-7.2-0.8-94.8,15.4-173.4
	c11.3-55,11.1-123.5,18.4-137.7c13.4-26,34-272.8,34.2-296.5c0.2-29.2,20.4-91.4,39.7-121.8c40.9-64.5,17.1-66.6,132.4-93.7
	c49.1-11.6,57.1-11.5,75,0.3c32.2,21.3,45.4,12.4,77.5-2.7c63,27.9,47.2,11.2,176,40c44,9.8,46.2,9.6,52.6-5.8
	c3.2-7.7,8.4-14,11.5-14c14.1,0,35.6-12.7,44.5-26.3c13.9-21.2,31.8-39.7,82.3-84.7c126.4-112.7,184.5-257.5,224.7-264.5
	c33-5.8,97.1-40.8,133.2-72.7c43.5-38.6,72.7-58.6,112.1-77c79.9-37.3,83.6-39.5,83.6-50.1c0-12.7-3.4-12.1-76.9,12.3
	c-44.9,14.9-59.1,18.2-61.4,14.4C3760.1,774.1,3762.7,771.1,3779.3,763.4z M2236.3,344.5c12-14.5-12.7-24.6,29.1-22.5
	c21.5,1.1,25.2,2.4,27.1,9.5c4.8,18.2-10.6,61.3-24.5,68.8c-15.1,8.1-23,4.9-27.2-10.8C2232.7,360,2231.7,349.9,2236.3,344.5z
	 M1767.2,140.1c-22.5,11.3-24.1,29.9-24.3,10.6c-0.1-13.2,13.1-27.1,24.1-25.5C1779.3,127,1779.4,134,1767.2,140.1z M382,756.1
	c0,16.9-40.2,42.4-15.8-1.8c11.2-20.3,13.3-31.1,24-31.1c14.3,0-2.6,8.1,1.7,12.4C394.7,738.4,382,744.2,382,756.1z M437.9,1787.1
	c-53.9,70.2-53.3,107.9-48-45.4c5.3-154.9,8.3-189.1,15.7-184.4c2.2,1.3,2.9,5.6,1.7,9.4c-1.2,3.9,1.1,12.9,5.3,20.1
	c5.2,9,8.7,26.5,11.4,56.2c5.6,61.8,16.4,58,16.4,85.7C440.3,1771,457.3,1761.8,437.9,1787.1z M452,534.6c-5.2,3.2-5.2-22.7,0-19.4
	C457.1,518.3,457.1,531.5,452,534.6z M449.2,484.1l-17.3,19.4c5.9,90.2-3.2,61.4,0.8,92.4c2,15.6,1.2,22.3-3.6,28.9
	c-12.9,17.7-17.3,14.9-14.5-9.5c4.9-43,4.1-109.2,25.4-140.6c3.8-5.6,13.3-20.3,21.2-32.5c11.7-18.3,25.8-29.4,25.8-20.3
	C487,429.4,463.6,467.8,449.2,484.1z M1703.9,1648.5c-4.3,0-7.8,1.8-7.8,4.1c0,2.2-3.9,8-8.8,12.8c-53,53-23.8,110.9-66.1,247.5
	c-5.8,18.7-4.7,115.7-4.7,134.1c-32.6,62.8-62.8,130.8-79.2,209.6c-11.8,57.1-10.3,30.8-22,64.8c-15.6,45.1-33.1,43.4,13.7,68
	c34.8,18.3,35.2,19.5,37.6,94.9c2.2,68.8-1.7,69.4-5.8,79.7c-33.3-35.7-36.6-36.5-72.6-106.2l4.7-22.7c5.4-26,2.5-75.1-4.8-81
	c-19.8-16.2-8.6-101.4,26.9-204.1c70.5-204.2,35.8-221.2,64.4-226.9c8.3-1.7,13.4-6.2,18.1-16c3.6-7.5,7.9-13.7,9.6-13.7
	c1.7,0,2.1-2.5,0.9-5.5c-2.9-7.5,12.2-79.1,21.8-103.4c4.2-10.8,8.7-29.6,10-41.9c5-48.5,28.7-68.9,23.8-132.8
	c-3.4-44,4.2-53.5,12.4-15.5c4.2,19.3,6.4,22.7,20.1,30.4C1713.2,1634.3,1717.8,1648.5,1703.9,1648.5z M2053.9,35
	c-5.2,0-5.1-16.8,0-13.6C2059,24.6,2059,35,2053.9,35z"/>
</svg>
